<svg version="1.1" width="600" height="200" xmlns="http://www.w3.org/2000/svg">
<defs><marker id="arrowhead" markerWidth="10" markerHeight="7" refX="0" refY="3.5" orient="auto"><polygon points="0 0, 10 3.5, 0 7" /></marker></defs>

<!--
<line x1="1" y1="1" x2="600" y2="1" stroke="#0000FF" stroke-width="1"/>
<line x1="1" y1="1" x2="1" y2="400" stroke="#0000FF" stroke-width="1"/>
<line x1="1" y1="400" x2="600" y2="400" stroke="#0000FF" stroke-width="1"/>
<line x1="600" y1="1" x2="600" y2="400" stroke="#0000FF" stroke-width="1"/>
-->

<line x1="20" y1="20" x2="20" y2="80" stroke="#000000" stroke-dasharray="5,3" stroke-width="1"/>
<line x1="580" y1="20" x2="580" y2="80" stroke="#000000" stroke-dasharray="5,3" stroke-width="1"/>

<line x1="250" y1="50" x2="32" y2="50" stroke="#000" stroke-width="1" marker-end="url(#arrowhead)" />
<line x1="350" y1="50" x2="568" y2="50" stroke="#000" stroke-width="1" marker-end="url(#arrowhead)" />

<rect x="20" y="80" width="560" height="40" style="fill:#DAE8FC;stroke:#0000FF;stroke-width:1" />
<line x1="60" y1="80" x2="60" y2="120" stroke="#0000FF" stroke-width="1"/>
<line x1="100" y1="80" x2="100" y2="120" stroke="#0000FF" stroke-width="1"/>
<line x1="140" y1="80" x2="140" y2="120" stroke="#0000FF" stroke-width="1"/>
<line x1="180" y1="80" x2="180" y2="120" stroke="#0000FF" stroke-width="1"/>

<line x1="540" y1="80" x2="540" y2="120" stroke="#0000FF" stroke-width="1"/>
<line x1="500" y1="80" x2="500" y2="120" stroke="#0000FF" stroke-width="1"/>

<line x1="380" y1="80" x2="380" y2="120" stroke="#0000FF" stroke-width="1"/>
<line x1="340" y1="80" x2="340" y2="120" stroke="#0000FF" stroke-width="1"/>

<line x1="40" y1="190" x2="40" y2="133" stroke="#000" stroke-width="1" marker-end="url(#arrowhead)" />
<line x1="360" y1="190" x2="360" y2="133" stroke="#000" stroke-width="1" marker-end="url(#arrowhead)" />
<line x1="356" y1="160" x2="53" y2="160" stroke="#000" stroke-dasharray="5,3" stroke-width="1" marker-end="url(#arrowhead)" />

<text x="260" y="55" style="font-size:15px;font-family:'Arial'">
WAL space
</text>

<text x="160" y="150" style="font-size:15px;font-family:'Arial'">
byte offset
</text>

</svg>
