<svg version="1.1" width="600" height="300" xmlns="http://www.w3.org/2000/svg">
<defs><marker id="arrowhead" markerWidth="10" markerHeight="7" refX="0" refY="3.5" orient="auto"><polygon points="0 0, 10 3.5, 0 7" /></marker></defs>

<rect x="250" y="40" width="100" height="40" style="fill:rgb(227,200,0);stroke:#0000FF;stroke-width:1" />

<rect x="75" y="140" width="100" height="40" style="fill:rgb(227,200,0);stroke:#0000FF;stroke-width:1" />
<rect x="250" y="140" width="100" height="40" style="fill:rgb(227,200,0);stroke:#0000FF;stroke-width:1" />
<rect x="425" y="140" width="100" height="40" style="fill:rgb(227,200,0);stroke:#0000FF;stroke-width:1" />

<rect x="75" y="240" width="100" height="40" style="fill:rgb(227,200,0);stroke:#0000FF;stroke-width:1" />
<rect x="250" y="240" width="100" height="40" style="fill:rgb(227,200,0);stroke:#0000FF;stroke-width:1" />

<text x="290" y="65" style="font-size:20px;font-family:'Arial'">A</text>
<text x="115" y="165" style="font-size:20px;font-family:'Arial'">B</text>
<text x="290" y="165" style="font-size:20px;font-family:'Arial'">C</text>
<text x="465" y="165" style="font-size:20px;font-family:'Arial'">D</text>

<text x="115" y="265" style="font-size:20px;font-family:'Arial'">E</text>
<text x="290" y="265" style="font-size:20px;font-family:'Arial'">F</text>

<path d="M245 45 L115 45 L115 125" stroke="#000000" stroke-width="1" fill="none" marker-end="url(#arrowhead)"  />
<path d="M130 135 L130 65 L235 65" stroke="#000000" stroke-width="1" fill="none" marker-end="url(#arrowhead)"  />

<path d="M105 185 L105 225" stroke="#000000" stroke-width="1" fill="none" marker-end="url(#arrowhead)"  />
<path d="M125 235 L125 195" stroke="#000000" stroke-width="1" fill="none" marker-end="url(#arrowhead)"  />

<path d="M185 150 L235 150" stroke="#000000" stroke-width="1" fill="none" marker-end="url(#arrowhead)"  />
<path d="M245 170 L190 170" stroke="#000000" stroke-width="1" fill="none" marker-end="url(#arrowhead)"  />
</svg>
