<svg version="1.1" width="600" height="380" xmlns="http://www.w3.org/2000/svg">
<defs><marker id="arrowhead" markerWidth="10" markerHeight="7" refX="0" refY="3.5" orient="auto"><polygon points="0 0, 10 3.5, 0 7" /></marker></defs>

<text x="60" y="25" style="font-size:15px;font-family:'Arial'">BEGIN;</text>
<text x="60" y="45" style="font-size:15px;font-family:'Arial'">INSERT INTO t VALUES('AAA');</text>
<text x="60" y="65" style="font-size:15px;font-family:'Arial'">COMMIT;</text>

<text x="360" y="25" style="font-size:15px;font-family:'Arial'">BEGIN;</text>
<text x="360" y="45" style="font-size:15px;font-family:'Arial'">INSERT INTO t VALUES('BBB');</text>
<text x="360" y="65" style="font-size:15px;font-family:'Arial'">COMMIT;</text>

<path d="M 20 100 H 580 " stroke="#000000" stroke-width="1" fill="none" marker-end="url(#arrowhead)" />
<path d="M 60 70 V 85 " stroke="#000000" stroke-width="1" fill="none" marker-end="url(#arrowhead)" />
<path d="M 420 70 V 85 " stroke="#000000" stroke-width="1" fill="none" marker-end="url(#arrowhead)" />

<path d="M 185 130 h 40 " stroke="#000000" stroke-width="1" fill="none" stroke-dasharray="3,3" marker-end="url(#arrowhead)" />
<path d="M 365 130 h 40 " stroke="#000000" stroke-width="1" fill="none" stroke-dasharray="3,3" marker-end="url(#arrowhead)" />

<g transform="translate(50, 100)">
<rect x="10" y="10" width="120" height="60" style="fill:none;stroke:#0000FF;stroke-width:1" />
<rect x="10" y="10" width="53" height="20" style="fill:rgb(248,206,204);stroke:#0000FF;stroke-width:1" />
<text x="15" y="25" style="font-size:15px;font-family:'Arial'">LSN 0</text>
<rect x="100" y="50" width="30" height="20" style="fill:none;stroke:#0000FF;stroke-width:1" />
</g>

<g transform="translate(230, 100)">
<rect x="10" y="10" width="120" height="60" style="fill:none;stroke:#0000FF;stroke-width:1" />
<rect x="10" y="10" width="53" height="20" style="fill:rgb(248,206,204);stroke:#0000FF;stroke-width:1" />
<text x="15" y="25" style="font-size:15px;font-family:'Arial'">LSN 1</text>
<rect x="100" y="50" width="30" height="20" style="fill:none;stroke:#0000FF;stroke-width:1" />
<rect x="60" y="50" width="40" height="20" style="fill:rgb(248,206,204);stroke:#0000FF;stroke-width:1" />
<text x="65" y="65" style="font-size:15px;font-family:'Arial'">AAA</text>
</g>

<g transform="translate(410, 100)">
<rect x="10" y="10" width="120" height="60" style="fill:none;stroke:#0000FF;stroke-width:1" />
<rect x="10" y="10" width="53" height="20" style="fill:rgb(248,206,204);stroke:#0000FF;stroke-width:1" />
<text x="15" y="25" style="font-size:15px;font-family:'Arial'">LSN 2</text>
<rect x="100" y="50" width="30" height="20" style="fill:none;stroke:#0000FF;stroke-width:1" />
<rect x="60" y="50" width="40" height="20" style="fill:rgb(248,206,204);stroke:#0000FF;stroke-width:1" />
<text x="65" y="65" style="font-size:15px;font-family:'Arial'">AAA</text>
<rect x="20" y="50" width="40" height="20" style="fill:rgb(248,206,204);stroke:#0000FF;stroke-width:1" />
<text x="25" y="65" style="font-size:15px;font-family:'Arial'">BBB</text>
</g>

<text x="10" y="190" style="font-size:15px;font-family:'Arial'">shared buffer pool</text>
<path d="M 20 200 H 580 " stroke="#000000" stroke-width="1" fill="none" stroke-dasharray="3,3" />

<text x="10" y="260" style="font-size:15px;font-family:'Arial'">WAL segment file</text>
<path d="M 20 270 H 580 " stroke="#000000" stroke-width="1" fill="none" marker-end="url(#arrowhead)" />

<g>
<rect x="200" y="245" width="140" height="20" style="fill:none;stroke:#0000FF;stroke-width:1" />
<text x="205" y="260" style="font-size:15px;font-family:'Arial'">AAA</text>
<text x="275" y="260" style="font-size:15px;font-family:'Arial'">COMMIT</text>
<path d="M 240 245 v 20 " stroke="#000000" stroke-width="1" fill="none" />
<path d="M 270 245 v 20 " stroke="#000000" stroke-width="1" fill="none" />
</g>

<g transform="translate(200, 0)">
<rect x="200" y="245" width="140" height="20" style="fill:none;stroke:#0000FF;stroke-width:1" />
<text x="205" y="260" style="font-size:15px;font-family:'Arial'">BBB</text>
<text x="275" y="260" style="font-size:15px;font-family:'Arial'">COMMIT</text>
<path d="M 240 245 v 20 " stroke="#000000" stroke-width="1" fill="none" />
<path d="M 270 245 v 20 " stroke="#000000" stroke-width="1" fill="none" />
</g>

<path d="M 200 305 v -20 " stroke="#000000" stroke-width="1" fill="none" stroke-dasharray="3,3" marker-end="url(#arrowhead)" />
<text x="180" y="325" style="font-size:15px;font-family:'Arial'">LSN 1</text>

<path d="M 450 220 H 400 V 230" stroke="#000000" stroke-width="1" fill="none" stroke-dasharray="3,3" marker-end="url(#arrowhead)" />
<text x="455" y="225" style="font-size:15px;font-family:'Arial'">LSN 2</text>

<path d="M 350 175 V 295" stroke="#000000" stroke-width="1" fill="none" marker-end="url(#arrowhead)" />

<g transform="translate(300, 300)">
<rect x="10" y="10" width="120" height="60" style="fill:none;stroke:#0000FF;stroke-width:1" />
<rect x="10" y="10" width="53" height="20" style="fill:rgb(248,206,204);stroke:#0000FF;stroke-width:1" />
<text x="15" y="25" style="font-size:15px;font-family:'Arial'">LSN 1</text>
<rect x="100" y="50" width="30" height="20" style="fill:none;stroke:#0000FF;stroke-width:1" />
<rect x="60" y="50" width="40" height="20" style="fill:rgb(248,206,204);stroke:#0000FF;stroke-width:1" />
<text x="65" y="65" style="font-size:15px;font-family:'Arial'">AAA</text>
</g>
</svg>
