<svg version="1.1" width="600" height="140" xmlns="http://www.w3.org/2000/svg">
<defs><marker id="arrowhead" markerWidth="10" markerHeight="7" refX="0" refY="3.5" orient="auto"><polygon points="0 0, 10 3.5, 0 7" /></marker></defs>

<g transform="translate(100, 20)">
<path d="M 9 20 h 40 a 5 5 0 0 1 5 5 v 90 a 5 5 0 0 1 -5 5 h -40 a 5 5 0 0 1 -5 -5 v -90 a 5 5 0 0 1 5 -5" stroke="#000000" stroke-width="6" fill="none" />
<path d="M 15 35 h 30" stroke="#000000" stroke-width="5" fill="none" />
<path d="M 15 45 h 30" stroke="#000000" stroke-width="5" fill="none" />
<path d="M 15 55 h 30" stroke="#000000" stroke-width="5" fill="none" />
<path d="M 15 65 h 30" stroke="#000000" stroke-width="5" fill="none" />
<circle cx="30" cy="80" r="8" fill="#000000" />
<circle cx="30" cy="95" r="3" fill="#000000" />
<rect x="15" y="105" width="30" height="5" style="fill:none;stroke:#000000;stroke-width:2" />
<path d="M 25 105 v 5" stroke="#000000" stroke-width="2" fill="none" />
<path d="M 35 105 v 5" stroke="#000000" stroke-width="2" fill="none" />
</g>

<g transform="translate(460, 20)">
<path d="M 9 20 h 40 a 5 5 0 0 1 5 5 v 90 a 5 5 0 0 1 -5 5 h -40 a 5 5 0 0 1 -5 -5 v -90 a 5 5 0 0 1 5 -5" stroke="#000000" stroke-width="6" fill="none" />
<path d="M 15 35 h 30" stroke="#000000" stroke-width="5" fill="none" />
<path d="M 15 45 h 30" stroke="#000000" stroke-width="5" fill="none" />
<path d="M 15 55 h 30" stroke="#000000" stroke-width="5" fill="none" />
<path d="M 15 65 h 30" stroke="#000000" stroke-width="5" fill="none" />
<circle cx="30" cy="80" r="8" fill="#000000" />
<circle cx="30" cy="95" r="3" fill="#000000" />
<rect x="15" y="105" width="30" height="5" style="fill:none;stroke:#000000;stroke-width:2" />
<path d="M 25 105 v 5" stroke="#000000" stroke-width="2" fill="none" />
<path d="M 35 105 v 5" stroke="#000000" stroke-width="2" fill="none" />
</g>
</svg>
