<svg version="1.1" width="600" height="200" xmlns="http://www.w3.org/2000/svg">
<defs><marker id="arrowhead" markerWidth="10" markerHeight="7" refX="0" refY="3.5" orient="auto"><polygon points="0 0, 10 3.5, 0 7" /></marker></defs>

<text x="150" y="25" style="font-size:13px;font-family:'Courier New'">HeapTupleHeaderData</text>
<path d="M 20 50 v 50" stroke="#000000" stroke-width="1" fill="none" stroke-dasharray="3,3"/>
<path d="M 400 50 v 50" stroke="#000000" stroke-width="1" fill="none" stroke-dasharray="3,3"/>
<path d="M 20 47 v -3 a 5 5 0 0 1 5 -5 h 180 a 5 5 0 0 0 5 -5 a 5 5 0 0 0 5 5 h 180 a 5 5 0 0 1 5 5 v 3" stroke="#000000" stroke-width="1" fill="none" />

<rect x="20" y="100" width="560" height="30" style="fill:none;stroke:#0000FF;stroke-width:1" />
<rect x="400" y="100" width="180" height="30" style="fill:rgb(213,232,212);stroke:#0000FF;stroke-width:1" />
<text x="450" y="120" style="font-size:15px;font-family:'Arial'">real data</text>

<path d="M 50 100 v 30" stroke="#0000FF" stroke-width="1" fill="none" />
<path d="M 80 100 v 30" stroke="#0000FF" stroke-width="1" fill="none" />
<path d="M 110 100 v 30" stroke="#0000FF" stroke-width="1" fill="none" />
</svg>
