<svg version="1.1" width="600" height="336" xmlns="http://www.w3.org/2000/svg">
<defs><marker id="arrowhead" markerWidth="10" markerHeight="7" refX="0" refY="3.5" orient="auto"><polygon points="0 0, 10 3.5, 0 7" /></marker></defs>

<ellipse cx="210" cy="110" rx="50" ry="20" style="fill:rgb(255,242,204);stroke:#0000FF;stroke-width:1" />
<text x="182" y="113" style="font-size:13px;font-family:'Arial'">walsender</text>
<path d="M 125 110 H 147 " stroke="#000000" stroke-width="1" fill="none" marker-end="url(#arrowhead)" />

<ellipse cx="490" cy="110" rx="50" ry="20" style="fill:rgb(255,242,204);stroke:#0000FF;stroke-width:1" />
<text x="445" y="113" style="font-size:13px;font-family:'Arial'">pg_basebackup</text>

<path d="M 265 110 H 425 " stroke="#000000" stroke-width="1" fill="none" marker-end="url(#arrowhead)" />

<path d="M 125 250 h 50 v -110 " stroke="#000000" stroke-width="1" fill="none" marker-end="url(#arrowhead)" />

<path d="M 210 132 V 197 " stroke="#000000" stroke-width="1" fill="none" marker-end="url(#arrowhead)" />


<path d="M 300 20 V 326 " stroke="#000000" stroke-width="1" fill="none" stroke-dasharray="3,3"/>

<text x="250" y="40" style="font-size:15px;font-family:'Arial'">server</text>
<text x="310" y="40" style="font-size:15px;font-family:'Arial'">client</text>

<text x="40" y="30" style="font-size:15px;font-family:'Arial'">data files</text>
<text x="40" y="322" style="font-size:15px;font-family:'Arial'">wal files</text>

<text x="220" y="202" style="font-size:15px;font-family:'Arial'">hard disk</text>
<text x="310" y="202" style="font-size:13px;font-family:'Courier New'">pg_basebackup -t server:/var/data</text>
<g transform="translate(190, 210)">
<path d="M 0 5 a 5 5 0 0 1 5 -5 h 70 a 5 5 0 0 1 5 5 v 90 a 5 5 0 0 1 -5 5 h -70 a 5 5 0 0 1 -5 -5 v -90" stroke="#0000FF" stroke-width="1" fill="rgb(39,175,237)" />
<circle cx="15" cy="15" r="3" fill="#000000" />
<circle cx="65" cy="15" r="3" fill="#000000" />
<circle cx="65" cy="85" r="3" fill="#000000" />
<circle cx="15" cy="85" r="3" fill="#000000" />
<circle cx="40" cy="40" r="25" fill="none" stroke="#0000FF" stroke-width="1" />
<circle cx="40" cy="40" r="5" fill="none" stroke="#0000FF" stroke-width="1" />
<path d="M 62 60 a 7 7 0 1 1 -7 7 l -9 -20 l 16 13" fill="#FFFFFF" stroke="#0000FF" stroke-width="1"/>
</g>


<g transform="translate(40, 40)">
<path d="M 0 5 a 5 5 0 0 1 5 -5 h 52 a 5 5 0 0 1 5 5 v 90 a 5 5 0 0 1 -5 5 h -52 a 5 5 0 0 1 -5 -5 v -90" stroke="#0000FF" stroke-width="1" fill="rgb(218,232,252)" />
<path d="M 10 20 h 42 " stroke="#0000FF" stroke-width="1"/>
<path d="M 10 30 h 42 " stroke="#0000FF" stroke-width="1"/>
<path d="M 10 40 h 42 " stroke="#0000FF" stroke-width="1"/>
<path d="M 10 50 h 42 " stroke="#0000FF" stroke-width="1"/>
<path d="M 10 60 h 42 " stroke="#0000FF" stroke-width="1"/>
<path d="M 10 70 h 42 " stroke="#0000FF" stroke-width="1"/>
<path d="M 10 80 h 42 " stroke="#0000FF" stroke-width="1"/>
</g>
<g transform="translate(50, 50)">
<path d="M 0 5 a 5 5 0 0 1 5 -5 h 52 a 5 5 0 0 1 5 5 v 90 a 5 5 0 0 1 -5 5 h -52 a 5 5 0 0 1 -5 -5 v -90" stroke="#0000FF" stroke-width="1" fill="rgb(218,232,252)" />
<path d="M 10 20 h 42 " stroke="#0000FF" stroke-width="1"/>
<path d="M 10 30 h 42 " stroke="#0000FF" stroke-width="1"/>
<path d="M 10 40 h 42 " stroke="#0000FF" stroke-width="1"/>
<path d="M 10 50 h 42 " stroke="#0000FF" stroke-width="1"/>
<path d="M 10 60 h 42 " stroke="#0000FF" stroke-width="1"/>
<path d="M 10 70 h 42 " stroke="#0000FF" stroke-width="1"/>
<path d="M 10 80 h 42 " stroke="#0000FF" stroke-width="1"/>
</g>
<g transform="translate(60, 60)">
<path d="M 0 5 a 5 5 0 0 1 5 -5 h 52 a 5 5 0 0 1 5 5 v 90 a 5 5 0 0 1 -5 5 h -52 a 5 5 0 0 1 -5 -5 v -90" stroke="#0000FF" stroke-width="1" fill="rgb(218,232,252)" />
<path d="M 10 20 h 42 " stroke="#0000FF" stroke-width="1"/>
<path d="M 10 30 h 42 " stroke="#0000FF" stroke-width="1"/>
<path d="M 10 40 h 42 " stroke="#0000FF" stroke-width="1"/>
<path d="M 10 50 h 42 " stroke="#0000FF" stroke-width="1"/>
<path d="M 10 60 h 42 " stroke="#0000FF" stroke-width="1"/>
<path d="M 10 70 h 42 " stroke="#0000FF" stroke-width="1"/>
<path d="M 10 80 h 42 " stroke="#0000FF" stroke-width="1"/>
</g>

<g transform="translate(60, 180)">
<path d="M 0 0 v 100 h 62 v -80 l -20 -20 h -42" stroke="#0000FF" stroke-width="1" fill="rgb(248,206,204)" />
<path d="M 42 0 v 20 h 20" stroke="#0000FF" stroke-width="1" fill="rgb(248,206,204)" />
<path d="M 10 40 h 42 " stroke="#0000FF" stroke-width="1"/>
<path d="M 10 50 h 42 " stroke="#0000FF" stroke-width="1"/>
<path d="M 10 60 h 42 " stroke="#0000FF" stroke-width="1"/>
<path d="M 10 70 h 42 " stroke="#0000FF" stroke-width="1"/>
</g>
<g transform="translate(50, 193)">
<path d="M 0 0 v 100 h 62 v -80 l -20 -20 h -42" stroke="#0000FF" stroke-width="1" fill="rgb(248,206,204)" />
<path d="M 42 0 v 20 h 20" stroke="#0000FF" stroke-width="1" fill="rgb(248,206,204)" />
<path d="M 10 40 h 42 " stroke="#0000FF" stroke-width="1"/>
<path d="M 10 50 h 42 " stroke="#0000FF" stroke-width="1"/>
<path d="M 10 60 h 42 " stroke="#0000FF" stroke-width="1"/>
<path d="M 10 70 h 42 " stroke="#0000FF" stroke-width="1"/>
</g>
<g transform="translate(40, 206)">
<path d="M 0 0 v 100 h 62 v -80 l -20 -20 h -42" stroke="#0000FF" stroke-width="1" fill="rgb(248,206,204)" />
<path d="M 42 0 v 20 h 20" stroke="#0000FF" stroke-width="1" fill="rgb(248,206,204)" />
<path d="M 10 40 h 42 " stroke="#0000FF" stroke-width="1"/>
<path d="M 10 50 h 42 " stroke="#0000FF" stroke-width="1"/>
<path d="M 10 60 h 42 " stroke="#0000FF" stroke-width="1"/>
<path d="M 10 70 h 42 " stroke="#0000FF" stroke-width="1"/>
</g>
</svg>
