<svg version="1.1" width="600" height="600" xmlns="http://www.w3.org/2000/svg">
<defs><marker id="arrowhead" markerWidth="10" markerHeight="7" refX="0" refY="3.5" orient="auto"><polygon points="0 0, 10 3.5, 0 7" /></marker></defs>

<g transform="translate(100, 20)">
<rect x="1" y="1" width="100" height="26" style="fill:#000000;stroke:#000000;stroke-width:2" />
<rect x="6" y="9" width="60" height="10" style="fill:#FFFFFF;stroke:#000000;stroke-width:2" />
<circle cx="90" cy="13" r="5" fill="#FFFFFF" />
<rect x="1" y="31" width="100" height="26" style="fill:#000000;stroke:#000000;stroke-width:2" />
<rect x="6" y="39" width="60" height="10" style="fill:#FFFFFF;stroke:#000000;stroke-width:2" />
<circle cx="90" cy="43" r="5" fill="#FFFFFF" />
<rect x="1" y="61" width="100" height="26" style="fill:#000000;stroke:#000000;stroke-width:2" />
<rect x="6" y="69" width="60" height="10" style="fill:#FFFFFF;stroke:#000000;stroke-width:2" />
<circle cx="90" cy="73" r="5" fill="#FFFFFF" />
</g>

<g transform="translate(95, 290)">
<ellipse cx="51" cy="106" rx="50" ry="15" style="fill:#DAE8FC;stroke:#0000FF;stroke-width:1" />
<polygon points="1,106 1,16 101,16 101,106" style="fill:#DAE8FC;stroke:#DAE8FC;stroke-width:1" />
<path d="M 1 16 v 91" stroke="#0000FF" stroke-width="1" fill="none" />
<path d="M 101 16 v 91" stroke="#0000FF" stroke-width="1" fill="none" />
<ellipse cx="51" cy="16" rx="50" ry="15" style="fill:#DAE8FC;stroke:#0000FF;stroke-width:1" />
<text x="25" y="60" style="font-size:15px;font-family:'Arial'">primary</text>
<text x="20" y="80" style="font-size:15px;font-family:'Arial'">database</text>
</g>

</svg>

